<?xml version="1.0" encoding="iso-8859-1"?>
<!-- Generator: Adobe Illustrator 16.0.0, SVG Export Plug-In . SVG Version: 6.00 Build 0)  -->
<!DOCTYPE svg PUBLIC "-//W3C//DTD SVG 1.1//EN" "http://www.w3.org/Graphics/SVG/1.1/DTD/svg11.dtd">
<svg version="1.1" id="Layer_1" xmlns="http://www.w3.org/2000/svg" xmlns:xlink="http://www.w3.org/1999/xlink" x="0px" y="0px"
	 width="246.582px" height="95.117px" viewBox="0 0 246.582 95.117" style="enable-background:new 0 0 246.582 95.117;"
	 xml:space="preserve">
<g>
	<path style="fill:#FFFFFF;" d="M75.293,59.13c-3.259,4.037-9.241,7.406-17.943,10.107c-3.091,8.854-6.88,15.381-11.37,19.58
		s-9.157,6.299-14.003,6.299c-2.472,0-4.457-0.676-5.953-2.025c-1.497-1.352-2.245-3.134-2.245-5.348
		c0-6.998,6.901-12.906,20.703-17.725l1.123-4.59c3.223-13.117,5.225-20.947,6.006-23.486l2.783-9.326
		c-0.358,0.684-1.123,2.328-2.295,4.932c-5.632,12.63-10.645,21.265-15.039,25.904s-8.724,6.957-12.988,6.957
		c-3.255,0-5.9-1.27-7.935-3.809c-2.035-2.539-3.052-5.859-3.052-9.961c0-5.143,1.831-12.988,5.493-23.535
		c3.662-10.547,5.493-17.578,5.493-21.094c0-2.148-0.562-3.931-1.685-5.347s-2.547-2.124-4.272-2.124
		c-2.669,0-5.176,1.481-7.52,4.443c-2.344,2.962-3.516,6.136-3.516,9.521c0,3.093,1.106,5.599,3.32,7.52
		c0.781,0.716,1.172,1.286,1.172,1.709c0,0.977-0.643,2.319-1.929,4.028c-1.286,1.709-2.563,2.563-3.833,2.563
		c-1.367,0-2.678-0.96-3.931-2.881C0.626,29.525,0,27.49,0,25.342C0,19.58,2.116,13.916,6.348,8.35C10.579,2.783,15.625,0,21.484,0
		c4.167,0,7.576,1.635,10.229,4.904c2.653,3.269,3.979,7.506,3.979,12.71c-0.035,6.246-2.044,14.906-6.026,25.98
		c-2.721,7.654-4.081,13.059-4.081,16.218c0,2.931,1.074,4.396,3.223,4.396c3.971,0,9.049-5.965,15.234-17.895
		C50.228,34.383,55.811,20.02,60.791,3.223c0.228-0.846,0.626-1.399,1.195-1.66c0.569-0.26,2.521-0.586,5.857-0.977
		C71.179,0.195,72.96,0,73.189,0c0.845,0,1.22,0.244,1.122,0.731L71.67,11.326l-7.582,33.102c-1.042,4.56-2.783,11.283-5.225,20.172
		c6.715-2.115,12.191-5.811,16.43-11.084V59.13z M43.311,74.316c-4.883,1.66-8.74,3.703-11.572,6.129
		c-2.832,2.424-4.248,4.711-4.248,6.859c0,1.205,0.423,2.205,1.27,3.004c0.846,0.797,1.888,1.195,3.125,1.195
		c2.441,0,4.549-1.399,6.323-4.199C39.982,84.505,41.683,80.175,43.311,74.316z"/>
	<path style="fill:#FFFFFF;" d="M111.768,59.13c-4.135,4.07-7.846,7.072-11.133,9.01c-3.288,1.936-6.918,2.904-10.889,2.904
		c-4.427,0-8-1.416-10.718-4.248c-2.718-2.832-4.077-6.559-4.077-11.182c0-6.9,2.393-13.143,7.178-18.725s10.091-8.374,15.918-8.374
		c3.027,0,5.452,0.781,7.275,2.344c1.822,1.563,2.734,3.613,2.734,6.152c0,6.738-7.162,12.207-21.484,16.406
		c1.302,6.348,4.703,9.521,10.205,9.521c2.148,0,4.199-0.577,6.152-1.732c1.953-1.156,4.898-3.719,8.838-7.691V59.13z
		 M86.182,50.097c8.333-2.344,12.5-6.672,12.5-12.988c0-3.125-1.14-4.688-3.418-4.688c-2.148,0-4.199,1.636-6.152,4.907
		C87.158,40.601,86.182,44.857,86.182,50.097z"/>
	<path style="fill:#FFFFFF;" d="M155.615,59.13c-1.66,1.465-3.271,2.499-4.834,3.102c-1.563,0.602-2.8,0.902-3.711,0.902
		c-2.344,0-4.672-0.91-6.982-2.734c-4.688,7.098-10.059,10.645-16.113,10.645c-3.776,0-6.836-1.416-9.18-4.248
		s-3.516-6.592-3.516-11.279c0-7.422,2.637-13.793,7.91-19.116c5.273-5.322,11.572-7.983,18.896-7.983
		c2.767,0,4.793,0.301,6.079,0.903c1.285,0.603,2.075,1.311,2.368,2.124c0.293,0.814,0.439,1.839,0.439,3.076
		c0,6.087-1.66,13.558-4.98,22.412c1.66,1.531,3.401,2.295,5.225,2.295c2.181,0,4.98-1.904,8.398-5.713V59.13z M139.502,31.836
		c-0.488-0.195-1.188-0.293-2.1-0.293c-4.232,0-7.544,2.214-9.937,6.641c-2.393,4.427-3.589,9.603-3.589,15.527
		c0,3.289,0.521,5.844,1.563,7.666c1.041,1.824,2.49,2.734,4.346,2.734c2.311,0,4.817-2.131,7.52-6.396
		c-3.061-3.84-4.59-7.975-4.59-12.402C132.715,40.104,134.977,35.612,139.502,31.836z"/>
	<path style="fill:#FFFFFF;" d="M203.516,59.13c-7.52,7.943-13.965,11.914-19.336,11.914c-2.182,0-3.939-0.765-5.273-2.295
		c-1.335-1.529-2.002-3.58-2.002-6.152c0-3.482,1.432-8.805,4.297-15.967c1.529-3.84,2.295-6.281,2.295-7.324
		c0-1.042-0.407-1.563-1.221-1.563c-0.456,0-1.059,0.228-1.807,0.684c-0.684,0.456-1.481,1.091-2.393,1.904
		c-0.814,0.75-1.726,1.66-2.734,2.734c-0.879,0.912-1.823,1.953-2.832,3.125l-2.734,3.174c-1.205,1.465-1.953,3.012-2.246,4.639
		c-0.488,2.768-0.814,5.307-0.977,7.617c-0.098,1.727-0.146,4.053-0.146,6.982l-10.791,2.539c-0.358-4.395-0.537-7.666-0.537-9.814
		c0-5.24,0.61-10.205,1.831-14.893s3.182-9.96,5.884-15.82l11.914-2.295c-2.507,6.738-4.15,12.044-4.932,15.917
		c5.334-5.957,9.57-10.083,12.706-12.377s5.923-3.442,8.359-3.442c1.657,0,3.039,0.626,4.144,1.877
		c1.104,1.251,1.657,2.82,1.657,4.705c0,3.121-1.399,8.263-4.198,15.425c-1.92,4.916-2.88,8.107-2.88,9.576
		c0,1.959,0.8,2.938,2.399,2.938c2.382,0,6.232-3.141,11.553-9.424V59.13z"/>
	<path style="fill:#FFFFFF;" d="M217.188,0.098C222.396,2.832,225,6.673,225,11.621c0,4.102-1.652,7.829-4.956,11.182
		c-3.305,3.353-8.163,6.152-14.575,8.398l-0.684-2.979c3.711-2.018,6.47-3.849,8.276-5.493c1.807-1.644,2.71-3.605,2.71-5.884
		c0-2.897-1.66-4.932-4.98-6.104c-1.01-0.325-1.514-0.667-1.514-1.025c0-0.293,0.569-1.058,1.709-2.295
		C213.851,4.362,215.918,1.921,217.188,0.098z"/>
	<path style="fill:#FFFFFF;" d="M230.518,30.518c2.246-0.586,4.508-1.066,6.787-1.44c2.278-0.374,3.646-0.562,4.102-0.562
		c0.325,0,0.488,0.13,0.488,0.391c0,0.488-0.131,0.992-0.391,1.512c-0.521,1.497-0.781,2.929-0.781,4.294
		c0.005,1.692,0.983,4.004,2.934,6.935c1.95,2.932,2.926,5.65,2.926,8.156c0,4.98-2.385,9.783-7.153,14.404
		c-4.77,4.623-9.709,6.934-14.819,6.934c-2.214,0-4.232-0.586-6.055-1.758c-1.823-1.172-2.734-2.424-2.734-3.76
		c0-0.781,0.903-2.262,2.71-4.443c1.807-2.18,3.101-3.271,3.882-3.271c1.041,0,1.969,1.336,2.783,4.004
		c0.813,2.67,2.213,4.004,4.199,4.004c1.985,0,3.849-0.919,5.591-2.758c1.741-1.84,2.612-3.818,2.612-5.935
		c0.002-2.051-1.104-4.785-3.318-8.202c-2.215-3.418-3.681-6.281-4.396-8.594c-3.776,6.088-8.562,12.322-14.355,18.701h-1.123
		v-4.395C222.379,46.24,227.75,38.167,230.518,30.518z"/>
</g>
</svg>
